<svg xmlns="http://www.w3.org/2000/svg" xmlns:xlink="http://www.w3.org/1999/xlink" viewBox="0 0 16.933 16.933" id="Pallet">
  <defs>
    <linearGradient id="a">
      <stop offset="0" stop-color="#909090" class="stopColorbe5ac6 svgShape"></stop>
      <stop offset="1" stop-color="#000000" class="stopColor1b4fa4 svgShape"></stop>
    </linearGradient>
    <linearGradient xlink:href="#a" id="b" x1="32" x2="32" y1="62" y2="2" gradientUnits="userSpaceOnUse"></linearGradient>
  </defs>
  <path fill="url(#b)" d="m 19.869141,1.0000709 -4.826172,0.00195 c -1.466541,0 -2.679688,1.2131931 -2.679688,2.6796876 V 14.498047 c 0,1.333644 2,1.333644 2,0 V 3.6817116 c 0,-0.3930709 0.286562,-0.6796875 0.679688,-0.6796875 h 4.826172 c 0.393097,0 0.679687,0.2866922 0.679687,0.6796875 V 18.365234 c 0.0019,0.549581 0.446522,0.994167 0.996094,0.996094 h 4.777344 c 1.171334,0 1.148657,1.6783 0.419922,2.363281 L 18.931641,29.1875 c -1.011366,0.948586 -1.912826,1.029101 -2.982422,-0.0078 L 8.1542969,21.708984 C 7.1611144,20.761136 7.5961233,19.361328 8.5898438,19.361328 h 4.7773442 c 1.333643,0 1.333643,-2 0,-2 H 8.5898438 c -3.2960624,0 -3.9367273,3.79984 -1.8378907,5.771484 2.589603,2.495358 5.1955909,4.984216 7.7949219,7.472657 2.110867,1.978734 4.234452,1.554332 5.787109,0.0059 2.613936,-2.500724 5.238194,-4.998746 7.847657,-7.5 2.034678,-2.005053 0.903429,-5.75 -1.859375,-5.75 H 22.548828 V 3.6797585 c 0,-1.4664945 -1.213119,-2.6796876 -2.679687,-2.6796876 z m 29,0 -4.826172,0.00195 c -1.46654,0 -2.679688,1.2131931 -2.679688,2.6796876 V 14.498047 c 0,1.333644 2,1.333644 2,0 V 3.6817116 c 0,-0.3930709 0.286553,-0.6796875 0.679688,-0.6796875 h 4.826172 c 0.393097,0 0.679687,0.2866922 0.679687,0.6796875 V 18.365234 c 0.0019,0.549581 0.446524,0.994167 0.996094,0.996094 h 4.777344 c 1.33985,0 1.138725,1.717587 0.419922,2.363281 L 47.931641,29.1875 c -1.011364,0.948586 -1.912824,1.029101 -2.982422,-0.0078 L 37.154297,21.708996 C 36.205306,20.763501 36.853189,19.36134 37.589844,19.36134 h 4.777344 c 1.33364,0 1.33364,-2 0,-2 h -4.777344 c -3.453573,0 -3.964641,3.985746 -1.837891,5.771484 2.589604,2.495358 5.19559,4.984216 7.794922,7.472657 2.110866,1.978734 4.234453,1.554332 5.787109,0.0059 2.613937,-2.500724 5.238195,-4.998746 7.847657,-7.5 2.153991,-2.185621 1.164455,-5.75 -1.859375,-5.75 H 51.548828 V 3.6797585 c 0,-1.4664945 -1.213117,-2.6796876 -2.679687,-2.6796876 z M 5.0019531,44.304688 c -2.1986643,0 -4,1.7954 -4,3.99414 v 5.314453 c 0,2.198703 1.8013205,4.001953 4,4.001953 h 0.8203125 v 2.449219 c 0,1.610079 1.3274243,2.939453 2.9375,2.939453 h 3.8164064 c 1.740525,0 2.608005,-1.299311 2.908203,-2.71875 l 0.597656,-2.669922 h 28.332031 c 1.334635,0 1.334635,-2.001953 0,-2.001953 H 5.0019531 c -1.1252636,0 -2,-0.874721 -2,-2 v -5.314453 c 0,-1.125354 0.8747213,-2 2,-2 H 59.001953 c 1.125279,0 2,0.874684 2,2 v 5.314453 c 0,1.125241 -0.874736,2 -2,2 H 48.851562 c -0.829657,-0.0065 -1.223728,0.783135 -1.130859,1.226563 l 0.791016,3.455078 c 0.422248,1.644734 1.5449,2.708984 2.916015,2.708984 h 3.808594 c 1.610075,0 2.9375,-1.327383 2.9375,-2.9375 v -2.451172 h 0.828125 c 2.19868,0 4,-1.80325 4,-4.001953 v -5.314453 c 0,-2.19874 -1.801335,-3.994141 -4,-3.99414 z M 7.8222656,57.615234 H 14.03125 l -0.488281,2.207032 c -0.142156,0.727843 -0.524615,1.179687 -0.966797,1.179687 H 8.7597656 c -0.5366955,0 -0.9375,-0.400769 -0.9375,-0.9375 z m 42.1289064,0 h 6.222656 v 2.451172 c 0,0.536693 -0.400803,0.9375 -0.9375,0.9375 h -3.808594 c -0.598696,0 -0.856732,-0.784444 -0.966796,-1.18164 -0.152773,-0.617562 -0.348756,-1.502534 -0.509766,-2.207032 z" color="#000" enable-background="accumulate" font-family="sans-serif" font-weight="400" overflow="visible" style="line-height:normal;font-variant-ligatures:normal;font-variant-position:normal;font-variant-caps:normal;font-variant-numeric:normal;font-variant-alternates:normal;font-feature-settings:normal;text-indent:0;text-align:start;text-decoration-line:none;text-decoration-style:solid;text-decoration-color:#000;text-transform:none;text-orientation:mixed;white-space:normal;shape-padding:0;isolation:auto;mix-blend-mode:normal;solid-color:#000;solid-opacity:1" transform="scale(.26458)"></path>
</svg>
