<svg xmlns="http://www.w3.org/2000/svg" viewBox="0 0 64 64" id="broom">
  <path d="M49.455,63.886a3.52,3.52,0,0,0,3.516-3.517V27.9h1.073a1.25,1.25,0,0,0,1.25-1.25V19.469a1.25,1.25,0,0,0-1.25-1.25H42.751l-2.135-4.391a1.252,1.252,0,0,0-1.124-.7H28.808a1.252,1.252,0,0,0-1.124.7l-2.136,4.391h-.482V4.306a4.234,4.234,0,1,0-8.468,0V39.85h-1.69a1.249,1.249,0,0,0-1.25,1.25v3.437H8.463a1.25,1.25,0,0,0-1.25,1.25v4.638a1.249,1.249,0,0,0,1.25,1.25H9.556V62.636a1.25,1.25,0,0,0,1.25,1.25Zm1.016-3.517a1.018,1.018,0,0,1-1.016,1.017H32.108v-4.93H50.471ZM29.591,15.625H38.71l1.261,2.594H28.328Zm-4.525,5.094H52.794V25.4H25.066Zm0,7.178h25.4V53.956H32.108V51.675H33.2a1.25,1.25,0,0,0,1.25-1.25V45.787a1.25,1.25,0,0,0-1.25-1.25H28.007V41.1a1.25,1.25,0,0,0-1.25-1.25H25.066ZM19.1,4.306a1.734,1.734,0,1,1,3.468,0V39.85H19.1ZM16.158,42.35h9.349v2.187H16.158Zm13.45,19.036H26.249V55.531h-2.5v5.855H17.916V55.531h-2.5v5.855h-3.36V51.675H29.608Zm1.25-12.211H9.713V47.037H31.952v2.138Z"></path>
</svg>
