<svg xmlns="http://www.w3.org/2000/svg" viewBox="0 0 48 48" id="warehouse">
  <g fill="#000000" class="color000000 svgShape">
    <path d="M43,15.87a.48.48,0,0,0,0-.2,1.3,1.3,0,0,0-.08-.17l-.11-.16a.93.93,0,0,0-.15-.13.7.7,0,0,0-.1-.08l-18-10a1,1,0,0,0-1,0l-18,10a.7.7,0,0,0-.1.08.93.93,0,0,0-.15.13l-.11.16a1.3,1.3,0,0,0-.08.17.48.48,0,0,0,0,.2A.61.61,0,0,0,5,16v6a1,1,0,0,0,1,1H8V42c-.07,1.64,3.13.81,4,1H36c.84-.19,4.1.64,4-1V23h2a1,1,0,0,0,1-1V16A.61.61,0,0,0,43,15.87ZM24,29a1,1,0,0,0,1-1V27h2v6H21V27h2v1A1,1,0,0,0,24,29Zm-4,8a1,1,0,0,0,1-1V35h2v6H17V35h2v1A1,1,0,0,0,20,37Zm5,4V35h2v1a1,1,0,0,0,2,0V35h2v6Zm8,0V34a1,1,0,0,0-1-1H29V26a1,1,0,0,0-1-1H20a1,1,0,0,0-1,1v7H16a1,1,0,0,0-1,1v7H13V23H35V41Zm5,0H37V22a1,1,0,0,0-1-1H12a1,1,0,0,0-1,1V41H10V18.6l14-7.47L38,18.6Zm2-20V18a.5.5,0,0,0,0-.13.78.78,0,0,0,0-.21.7.7,0,0,0-.09-.17l-.1-.15a.91.91,0,0,0-.16-.13.87.87,0,0,0-.11-.09l-15-8a1,1,0,0,0-.94,0l-15,8-.11.08a2,2,0,0,0-.16.14l-.1.15a.7.7,0,0,0-.09.17.78.78,0,0,0,0,.21A.5.5,0,0,0,8,18v3H7V16.59L24,7.14l17,9.45V21Z" fill="#000000" class="color000000 svgShape"></path>
    <path d="M28,17H20a1,1,0,0,0,0,2h8a1,1,0,0,0,0-2Z" fill="#000000" class="color000000 svgShape"></path>
  </g>
</svg>
